<svg width="232" height="232" viewBox="0 0 232 232" fill="none" xmlns="http://www.w3.org/2000/svg">
<path opacity="0.91" d="M92.1505 48.575C88.0883 48.575 84.0659 49.3751 80.3129 50.9297C76.5599 52.4842 73.1498 54.7627 70.2774 57.6352C67.4049 60.5076 65.1264 63.9177 63.5719 67.6707C62.0173 71.4237 61.2172 75.4461 61.2172 79.5083C61.2172 83.5706 62.0173 87.593 63.5719 91.346C65.1264 95.099 67.4049 98.5091 70.2774 101.382C73.1498 104.254 76.5599 106.532 80.3129 108.087C84.0659 109.642 88.0883 110.442 92.1505 110.442C100.355 110.442 108.223 107.183 114.024 101.382C119.825 95.5804 123.084 87.7124 123.084 79.5083C123.084 71.3043 119.825 63.4363 114.024 57.6352C108.223 51.834 100.355 48.575 92.1505 48.575ZM65.4464 116.891C40.4088 127.516 23.8543 151.752 23.0641 178.939C39.9984 198.298 64.8278 210.582 92.5886 210.582C107.796 210.582 122.05 206.781 134.684 200.266C131.254 195.683 128.373 190.662 125.939 185.268C118.298 168.337 114.372 147.963 113.901 128.144L113.855 126.195L92.8151 159.107L65.4464 116.891ZM170.42 118.386C156.928 118.386 132.841 133.415 132.841 133.415C133.692 169.233 147.912 208.871 170.42 208.589C170.445 208.588 170.471 208.589 170.496 208.589C176.822 208.508 182.421 205.208 186.99 200.417C191.558 195.626 195.312 189.252 198.393 182.096C204.556 167.783 207.999 150.319 207.999 135.922V133.853L206.263 132.751C206.263 132.751 200.689 129.209 193.56 125.667C186.431 122.124 177.941 118.386 170.451 118.386H170.42ZM170.42 125.893H170.451C175.095 125.893 183.484 129.055 190.222 132.403C195.856 135.203 198.909 137.15 200.266 137.992C199.964 150.844 196.879 166.571 191.476 179.12C188.637 185.712 185.219 191.391 181.552 195.236C177.892 199.075 174.208 201.011 170.42 201.067V125.893Z" fill="#FFBC6F"/>
</svg>
